<svg xmlns="http://www.w3.org/2000/svg" xmlns:xlink="http://www.w3.org/1999/xlink" xmlns:lucid="lucid" width="1240" height="441.67"><g transform="translate(-260 -180)" lucid:page-tab-id="5EeFR3L0Rigf"><path d="M280 544.33a6 6 0 0 1 6-6h508a6 6 0 0 1 6 6v51.34a6 6 0 0 1-6 6H286a6 6 0 0 1-6-6z" stroke="#5e5e5e" stroke-width="3" fill="#b2d6ef"/><use xlink:href="#a" transform="matrix(1,0,0,1,285.00000000000006,543.3333333333334) translate(160.89506172839506 31.27777777777778)"/><use xlink:href="#b" transform="matrix(1,0,0,1,285.00000000000006,543.3333333333334) translate(253.67283950617283 31.27777777777778)"/><use xlink:href="#c" transform="matrix(1,0,0,1,285.00000000000006,543.3333333333334) translate(331.94444444444446 31.27777777777778)"/><path d="M280 466a6 6 0 0 1 6-6h508a6 6 0 0 1 6 6v48a6 6 0 0 1-6 6H286a6 6 0 0 1-6-6z" stroke="#5e5e5e" stroke-width="3" fill="#ffeca9"/><use xlink:href="#d" transform="matrix(1,0,0,1,285.00000000000006,465) translate(162.28395061728395 30.27777777777778)"/><use xlink:href="#e" transform="matrix(1,0,0,1,285.00000000000006,465) translate(267.5925925925926 30.27777777777778)"/><path d="M280 206a6 6 0 0 1 6-6h148a6 6 0 0 1 6 6v228a6 6 0 0 1-6 6H286a6 6 0 0 1-6-6z" stroke="#5e5e5e" stroke-width="3" fill="#c7e8ac"/><use xlink:href="#f" transform="matrix(1,0,0,1,285,205) translate(48.18518518518519 229.66481777777778)"/><path d="M401.14 360c15.15 0 27.43 8.95 27.43 20s-12.28 20-27.43 20h-82.28c-15.15 0-27.43-8.95-27.43-20s12.28-20 27.43-20z" stroke="#5e5e5e" stroke-width="3" fill="#ffdba9"/><use xlink:href="#g" transform="matrix(1,0,0,1,296.42857142857144,365) translate(41.34450617283951 19.71527777777778)"/><path d="M401.14 300c15.15 0 27.43 8.95 27.43 20s-12.28 20-27.43 20h-82.28c-15.15 0-27.43-8.95-27.43-20s12.28-20 27.43-20z" stroke="#5e5e5e" stroke-width="3" fill="#ffbbb1"/><use xlink:href="#h" transform="matrix(1,0,0,1,296.42857142857144,305) translate(43.165493827160496 19.71527777777778)"/><path d="M467.33 206a6 6 0 0 1 6-6H794a6 6 0 0 1 6 6v229.67a6 6 0 0 1-6 6H473.33a6 6 0 0 1-6-6z" stroke="#5e5e5e" stroke-width="3" fill="#c7e8ac"/><use xlink:href="#f" transform="matrix(1,0,0,1,472.3333333333334,205) translate(134.1851851851852 231.50731377777774)"/><path d="M720.93 360c32.62 0 59.07 8.95 59.07 20s-26.45 20-59.07 20h-177.2c-32.62 0-59.06-8.95-59.06-20s26.44-20 59.06-20z" stroke="#5e5e5e" stroke-width="3" fill="#ffdba9"/><use xlink:href="#i" transform="matrix(1,0,0,1,489.66666666666674,365) translate(116.05438271604939 19.71527777777778)"/><path d="M752.57 310c15.15 0 27.43 8.95 27.43 20s-12.28 20-27.43 20H670.3c-15.16 0-27.44-8.95-27.44-20s12.28-20 27.43-20z" stroke="#5e5e5e" stroke-width="3" fill="#ffdba9"/><use xlink:href="#j" transform="matrix(1,0,0,1,647.8571428571429,315) translate(27.424753086419756 19.71527777777778)"/><use xlink:href="#k" transform="matrix(1,0,0,1,647.8571428571429,315) translate(42.79512345679013 19.71527777777778)"/><path d="M960 544.33a6 6 0 0 1 6-6h508a6 6 0 0 1 6 6v51.34a6 6 0 0 1-6 6H966a6 6 0 0 1-6-6z" stroke="#5e5e5e" stroke-width="3" fill="#b2d6ef"/><use xlink:href="#a" transform="matrix(1,0,0,1,965,543.3333333333334) translate(160.89506172839506 31.27777777777778)"/><use xlink:href="#b" transform="matrix(1,0,0,1,965,543.3333333333334) translate(253.67283950617283 31.27777777777778)"/><use xlink:href="#c" transform="matrix(1,0,0,1,965,543.3333333333334) translate(331.94444444444446 31.27777777777778)"/><path d="M960 466a6 6 0 0 1 6-6h508a6 6 0 0 1 6 6v48a6 6 0 0 1-6 6H966a6 6 0 0 1-6-6z" stroke="#5e5e5e" stroke-width="3" fill="#ffeca9"/><use xlink:href="#d" transform="matrix(1,0,0,1,965,465) translate(162.28395061728395 30.27777777777778)"/><use xlink:href="#e" transform="matrix(1,0,0,1,965,465) translate(267.5925925925926 30.27777777777778)"/><path d="M960 226a6 6 0 0 1 6-6h508a6 6 0 0 1 6 6v208a6 6 0 0 1-6 6H966a6 6 0 0 1-6-6z" stroke="#5e5e5e" stroke-width="3" fill="#c7e8ac"/><use xlink:href="#f" transform="matrix(1,0,0,1,965,225) translate(227.6851851851852 208.30052977777777)"/><path d="M1362.3 360c53.95 0 97.7 8.95 97.7 20s-43.75 20-97.7 20h-293.16c-53.96 0-97.7-8.95-97.7-20s43.74-20 97.7-20z" stroke="#5e5e5e" stroke-width="3" fill="#ffdba9"/><use xlink:href="#g" transform="matrix(1,0,0,1,976.4285714285714,365) translate(216.8445061728395 19.71527777777778)"/><path d="M1081.14 300c15.15 0 27.43 8.95 27.43 20s-12.28 20-27.43 20h-82.28c-15.15 0-27.43-8.95-27.43-20s12.28-20 27.43-20z" stroke="#5e5e5e" stroke-width="3" fill="#ffbbb1"/><use xlink:href="#h" transform="matrix(1,0,0,1,976.4285714285714,305) translate(43.165493827160496 19.71527777777778)"/><path d="M1140 236.67a6 6 0 0 1 6-6h288a6 6 0 0 1 6 6V344a6 6 0 0 1-6 6h-288a6 6 0 0 1-6-6z" stroke="#5e5e5e" stroke-width="3" fill="#ccc"/><use xlink:href="#l" transform="matrix(1,0,0,1,1145,235.66666666666657) translate(124.69135802469137 108.28049777777778)"/><path d="M1160 246a6 6 0 0 1 6-6h98a6 6 0 0 1 6 6v68a6 6 0 0 1-6 6h-98a6 6 0 0 1-6-6z" stroke="#5e5e5e" stroke-width="3" fill="#99d5ca"/><use xlink:href="#m" transform="matrix(1,0,0,1,1165,245) translate(6.26543209876543 68.91921777777779)"/><path d="M1243.3 260c10.4 0 18.84 7.46 18.84 16.67 0 9.2-8.44 16.66-18.85 16.66h-56.6c-10.4 0-18.84-7.46-18.84-16.66S1176.3 260 1186.7 260z" stroke="#5e5e5e" stroke-width="3" fill="#ffbbb1"/><use xlink:href="#h" transform="matrix(1,0,0,1,1172.857142857143,265) translate(21.665493827160496 19.27777777777778)"/><path d="M1300 246a6 6 0 0 1 6-6h98a6 6 0 0 1 6 6v68a6 6 0 0 1-6 6h-98a6 6 0 0 1-6-6z" stroke="#5e5e5e" stroke-width="3" fill="#99d5ca"/><use xlink:href="#m" transform="matrix(1,0,0,1,1305,245) translate(6.26543209876543 68.91921777777779)"/><path d="M1383.3 260c10.4 0 18.84 6.86 18.84 15.33 0 8.47-8.44 15.34-18.85 15.34h-56.6c-10.4 0-18.84-6.87-18.84-15.34 0-8.47 8.44-15.33 18.85-15.33z" stroke="#5e5e5e" stroke-width="3" fill="#ffbbb1"/><use xlink:href="#h" transform="matrix(1,0,0,1,1312.857142857143,265) translate(22.165493827160496 17.77777777777778)"/><path d="M642.86 226a6 6 0 0 1 6-6H774a6 6 0 0 1 6 6v58.67a6 6 0 0 1-6 6H648.86a6 6 0 0 1-6-6z" stroke="#5e5e5e" stroke-width="3" fill="#99d5ca"/><use xlink:href="#n" transform="matrix(1,0,0,1,647.8571428571429,225) translate(1.5308641975308603 60.60465777777777)"/><use xlink:href="#o" transform="matrix(1,0,0,1,647.8571428571429,225) translate(72.27160493827161 60.60465777777777)"/><path d="M739.7 230.67c10.43 0 18.87 6.56 18.87 14.66 0 8.1-8.44 14.67-18.86 14.67h-56.56c-10.4 0-18.85-6.57-18.85-14.67s8.43-14.66 18.84-14.66z" stroke="#5e5e5e" stroke-width="3" fill="#ffbbb1"/><g><use xlink:href="#h" transform="matrix(1,0,0,1,669.2857142857143,235.66666666666657) translate(21.665493827160496 17.77777777777778)"/></g><path d="M594.38 310c15.15 0 27.43 8.95 27.43 20s-12.27 20-27.42 20H512.1c-15.15 0-27.43-8.95-27.43-20s12.28-20 27.43-20z" stroke="#5e5e5e" stroke-width="3" fill="#ffdba9"/><g><use xlink:href="#j" transform="matrix(1,0,0,1,489.66666666666674,315) translate(27.424753086419756 19.71527777777778)"/><use xlink:href="#k" transform="matrix(1,0,0,1,489.66666666666674,315) translate(42.79512345679013 19.71527777777778)"/></g><path d="M484.67 226a6 6 0 0 1 6-6H615.8a6 6 0 0 1 6 6v58.67a6 6 0 0 1-6 6H490.68a6 6 0 0 1-6-6z" stroke="#5e5e5e" stroke-width="3" fill="#99d5ca"/><g><use xlink:href="#n" transform="matrix(1,0,0,1,489.66666666666674,224.99999999999997) translate(1.5308641975308603 60.60465777777777)"/><use xlink:href="#o" transform="matrix(1,0,0,1,489.66666666666674,224.99999999999997) translate(72.27160493827161 60.60465777777777)"/></g><path d="M581.52 230.67c10.42 0 18.86 6.56 18.86 14.66 0 8.1-8.44 14.67-18.86 14.67h-56.57c-10.4 0-18.85-6.57-18.85-14.67s8.44-14.66 18.85-14.66z" stroke="#5e5e5e" stroke-width="3" fill="#ffbbb1"/><g><use xlink:href="#h" transform="matrix(1,0,0,1,511.0952380952382,235.66666666666654) translate(21.665493827160496 17.77777777777778)"/></g><defs><path fill="#333" d="M10 0v-9l31-5v-208l-31-4v-10h95v10l-30 4v93h110v-93l-30-4v-10h94v10l-30 4v208l30 5v9h-94v-9l30-5v-99H75v99l30 5v9H10" id="p"/><path fill="#333" d="M32-163c41-10 102-14 102 39v112c8 3 24-2 21 12h-45l-4-17C83 13 3 13 13-46c-2-50 45-50 92-51 4-36-5-70-42-56-6 2-12 4-16 6-4 7 0 23-15 20v-36zM42-47c0 41 41 33 63 22v-59c-34 1-63-1-63 37" id="q"/><path fill="#333" d="M57-145c16-10 35-24 60-25v45c-19 1-8-30-40-17l-20 6v124l29 4v8H7v-8l21-4v-141c-8-3-24 2-21-12h48" id="r"/><path fill="#333" d="M13-81c0-71 46-101 114-85l-1-72-28-4v-8h57v238c8 3 24-2 21 12h-47l-2-12C80 23 13-1 13-81zm77-74c-37 1-44 33-45 74 0 38 9 66 45 66 14 0 27-3 36-7v-130c-10-1-24-3-36-3" id="s"/><path fill="#333" d="M240-154L185 4h-14l-41-109L90 4H77L20-153c-7-3-23 1-20-12h79v8l-27 4L91-41l40-108h14l40 109 38-113-28-4v-8h63v8" id="t"/><path fill="#333" d="M84-170c49 0 66 33 63 87H46c-8 60 38 80 95 63v10C128-2 108 4 88 4 34 4 14-29 14-84c-1-54 22-86 70-86zm33 73c12-57-57-82-69-24-1 7-2 15-2 24h71" id="u"/><g id="a"><use transform="matrix(0.06172839506172839,0,0,0.06172839506172839,0,0)" xlink:href="#p"/><use transform="matrix(0.06172839506172839,0,0,0.06172839506172839,15.987654320987653,0)" xlink:href="#q"/><use transform="matrix(0.06172839506172839,0,0,0.06172839506172839,25.80246913580247,0)" xlink:href="#r"/><use transform="matrix(0.06172839506172839,0,0,0.06172839506172839,33.148148148148145,0)" xlink:href="#s"/><use transform="matrix(0.06172839506172839,0,0,0.06172839506172839,44.25925925925925,0)" xlink:href="#t"/><use transform="matrix(0.06172839506172839,0,0,0.06172839506172839,60.246913580246904,0)" xlink:href="#q"/><use transform="matrix(0.06172839506172839,0,0,0.06172839506172839,70.06172839506172,0)" xlink:href="#r"/><use transform="matrix(0.06172839506172839,0,0,0.06172839506172839,77.4074074074074,0)" xlink:href="#u"/></g><path fill="#333" d="M108-235c-52 28-62 95-58 178 3 56 21 97 58 119v15C7 49-17-153 67-223c12-10 25-19 41-27v15" id="v"/><path fill="#333" d="M178-68c0 79-95 82-154 59v-54h12c1 35 22 52 60 52 50 0 69-58 33-82-39-24-105-21-105-85 0-67 86-66 142-53v49h-12l-6-29c-31-27-121-7-89 42 28 43 119 24 119 101" id="w"/><path fill="#333" d="M161-154L85 37C75 66 49 86 8 75V39c18-2 6 24 29 21 30-4 38-32 47-58L21-153c-7-3-20 0-17-12h77v8l-26 4 45 116 43-116-26-4v-8h62v8" id="x"/><path fill="#333" d="M41-130c7 48 86 23 86 84 0 56-69 57-112 41v-40c20 0 9 29 31 31 35 19 77-26 41-50-27-18-72-13-72-59 0-50 58-52 100-41v36c-19 1-8-25-28-25-21-7-50-1-46 23" id="y"/><path fill="#333" d="M54-38c-1 25 24 26 44 20v12C71 10 25 9 25-35v-115H4c-2-14 14-10 21-15l18-38h11v38h38v15H54v112" id="z"/><path fill="#333" d="M126-118c4-37-42-32-68-25v131l24 4v8H8C5-13 21-9 28-12v-141c-7-3-23 1-20-12h48l1 13c22-15 77-30 92 2 32-22 104-36 104 29v109c8 3 24-2 21 12h-75v-8l25-4v-106c3-39-45-31-72-24 7 37 1 88 3 130l25 4v8h-78v-8l24-4v-106" id="A"/><g id="b"><use transform="matrix(0.06172839506172839,0,0,0.06172839506172839,0,0)" xlink:href="#v"/><use transform="matrix(0.06172839506172839,0,0,0.06172839506172839,7.345679012345679,0)" xlink:href="#w"/><use transform="matrix(0.06172839506172839,0,0,0.06172839506172839,19.691358024691358,0)" xlink:href="#x"/><use transform="matrix(0.06172839506172839,0,0,0.06172839506172839,30.80246913580247,0)" xlink:href="#y"/><use transform="matrix(0.06172839506172839,0,0,0.06172839506172839,39.44444444444444,0)" xlink:href="#z"/><use transform="matrix(0.06172839506172839,0,0,0.06172839506172839,45.617283950617285,0)" xlink:href="#u"/><use transform="matrix(0.06172839506172839,0,0,0.06172839506172839,55.4320987654321,0)" xlink:href="#A"/></g><path fill="#333" d="M10 0v-8l90-143c-23 2-54-4-70 6-5 8 1 26-14 24v-44h122v8L47-14c29-2 65 3 86-8l9-35h8l-5 57H10" id="B"/><path fill="#333" d="M12-250C113-222 137-19 52 49 40 59 28 69 12 77V62C56 37 70-16 70-87c0-70-13-123-58-148v-15" id="C"/><g id="c"><use transform="matrix(0.06172839506172839,0,0,0.06172839506172839,0,0)" xlink:href="#B"/><use transform="matrix(0.06172839506172839,0,0,0.06172839506172839,9.814814814814815,0)" xlink:href="#C"/></g><path fill="#333" d="M166-85c3 67-44 102-111 85l1 64 29 4v9H6v-9l21-4v-217c-7-3-22 1-19-12h46l1 9c11-8 26-14 45-14 47 2 64 36 66 85zM56-13c53 14 83-14 78-72 7-53-33-79-78-60v132" id="D"/><path fill="#333" d="M164-154L98 4H85L17-153c-7-3-20 0-17-12h77v8l-26 4L99-38l46-115-26-4v-8h61v8" id="E"/><path fill="#333" d="M47-200c-23 0-25-39 0-38 13 0 18 7 20 19-1 11-8 19-20 19zM65-12l28 4v8H8v-8l28-4v-141l-24-4v-8h53v153" id="F"/><path fill="#333" d="M90-170c52 0 76 32 76 87 0 54-24 87-77 87-51 0-75-34-75-87 0-54 24-87 76-87zM89-10c39 0 46-35 46-73 0-39-7-73-46-73-39 1-44 34-44 73s6 72 44 73" id="G"/><g id="d"><use transform="matrix(0.06172839506172839,0,0,0.06172839506172839,0,0)" xlink:href="#p"/><use transform="matrix(0.06172839506172839,0,0,0.06172839506172839,15.987654320987653,0)" xlink:href="#x"/><use transform="matrix(0.06172839506172839,0,0,0.06172839506172839,27.098765432098766,0)" xlink:href="#D"/><use transform="matrix(0.06172839506172839,0,0,0.06172839506172839,38.20987654320987,0)" xlink:href="#u"/><use transform="matrix(0.06172839506172839,0,0,0.06172839506172839,48.02469135802469,0)" xlink:href="#r"/><use transform="matrix(0.06172839506172839,0,0,0.06172839506172839,55.37037037037037,0)" xlink:href="#E"/><use transform="matrix(0.06172839506172839,0,0,0.06172839506172839,66.48148148148148,0)" xlink:href="#F"/><use transform="matrix(0.06172839506172839,0,0,0.06172839506172839,72.65432098765432,0)" xlink:href="#y"/><use transform="matrix(0.06172839506172839,0,0,0.06172839506172839,81.29629629629629,0)" xlink:href="#G"/><use transform="matrix(0.06172839506172839,0,0,0.06172839506172839,92.4074074074074,0)" xlink:href="#r"/></g><path fill="#333" d="M75-108c48 3 76-12 76-58s-28-57-76-54v112zm111-58c-1 60-46 78-111 74v78l37 5v9H13v-9l28-5v-208l-31-4v-10c81 1 178-14 176 70" id="H"/><path fill="#333" d="M199-173c-1 36-21 56-49 65l64 94 26 5v9h-57l-66-103H75v89l35 5v9H13v-9l28-5v-208l-31-4v-10c80 4 190-20 189 63zM75-119c50 2 89-1 89-51 0-49-39-52-89-50v101" id="I"/><path fill="#333" d="M18 4H0l83-241h17" id="J"/><path fill="#333" d="M152 0h-7L59-203v189l32 5v9H10v-9l31-5v-208l-31-4v-10h72l76 180 84-180h68v10l-31 4v208l31 5v9h-96v-9l32-5v-189" id="K"/><g id="e"><use transform="matrix(0.06172839506172839,0,0,0.06172839506172839,0,0)" xlink:href="#v"/><use transform="matrix(0.06172839506172839,0,0,0.06172839506172839,7.345679012345679,0)" xlink:href="#H"/><use transform="matrix(0.06172839506172839,0,0,0.06172839506172839,19.691358024691358,0)" xlink:href="#I"/><use transform="matrix(0.06172839506172839,0,0,0.06172839506172839,34.50617283950617,0)" xlink:href="#J"/><use transform="matrix(0.06172839506172839,0,0,0.06172839506172839,40.67901234567901,0)" xlink:href="#w"/><use transform="matrix(0.06172839506172839,0,0,0.06172839506172839,53.02469135802469,0)" xlink:href="#K"/><use transform="matrix(0.06172839506172839,0,0,0.06172839506172839,72.77777777777777,0)" xlink:href="#C"/></g><path fill="#333" d="M111-226l-36 4v207c33-1 73 2 101-4l11-49h11l-3 68H10v-9l31-5v-208l-31-4v-10h101v10" id="L"/><path fill="#333" d="M81-9v9H4v-9l26-5 81-224h33l83 224 30 5v9h-99v-9l31-5-23-68H73L49-14zm38-203L78-98h82" id="M"/><g id="f"><use transform="matrix(0.06172839506172839,0,0,0.06172839506172839,0,0)" xlink:href="#L"/><use transform="matrix(0.06172839506172839,0,0,0.06172839506172839,13.518518518518517,0)" xlink:href="#H"/><use transform="matrix(0.06172839506172839,0,0,0.06172839506172839,23.827160493827158,0)" xlink:href="#M"/><use transform="matrix(0.06172839506172839,0,0,0.06172839506172839,39.81481481481481,0)" xlink:href="#I"/></g><path fill="#333" d="M130-224c-62 0-78 43-78 106 0 64 16 108 78 108s78-45 78-108-16-106-78-106zm0 228C53 4 15-39 15-118c-1-80 37-120 115-120s115 42 115 120C245-39 207 4 130 4" id="N"/><g id="g"><use transform="matrix(0.06172839506172839,0,0,0.06172839506172839,0,0)" xlink:href="#B"/><use transform="matrix(0.06172839506172839,0,0,0.06172839506172839,9.814814814814815,0)" xlink:href="#J"/><use transform="matrix(0.06172839506172839,0,0,0.06172839506172839,15.987654320987653,0)" xlink:href="#N"/><use transform="matrix(0.06172839506172839,0,0,0.06172839506172839,31.975308641975307,0)" xlink:href="#w"/></g><g id="h"><use transform="matrix(0.06172839506172839,0,0,0.06172839506172839,0,0)" xlink:href="#M"/><use transform="matrix(0.06172839506172839,0,0,0.06172839506172839,15.987654320987653,0)" xlink:href="#H"/><use transform="matrix(0.06172839506172839,0,0,0.06172839506172839,28.333333333333332,0)" xlink:href="#H"/></g><path fill="#333" d="M7 0v-8l76-141c-18 1-39-3-50 6l-6 27H14v-49h129v8L67-16c24 0 48 1 63-8l9-38h13l-5 62H7" id="O"/><path fill="#333" d="M21 4H-4l83-241h25" id="P"/><path fill="#333" d="M256-236v13l-22 5L143 5h-24L23-218l-19-5v-13h103v13l-25 5 66 154 62-154-23-5v-13h69" id="Q"/><path fill="#333" d="M155 0h-10L58-199v181l32 5V0H6v-13l30-5v-200l-30-5v-13h93l67 155 69-155h94v13l-30 5v200l30 5V0H212v-13l32-5v-181" id="R"/><g id="i"><use transform="matrix(0.06172839506172839,0,0,0.06172839506172839,0,0)" xlink:href="#O"/><use transform="matrix(0.06172839506172839,0,0,0.06172839506172839,9.814814814814815,0)" xlink:href="#P"/><use transform="matrix(0.06172839506172839,0,0,0.06172839506172839,15.987654320987653,0)" xlink:href="#Q"/><use transform="matrix(0.06172839506172839,0,0,0.06172839506172839,31.975308641975307,0)" xlink:href="#R"/></g><use transform="matrix(0.06172839506172839,0,0,0.06172839506172839,0,0)" xlink:href="#O" id="j"/><path fill="#333" d="M128-223l-36 5v199l103-3 14-49h16l-7 71H6v-13l30-5v-200l-30-5v-13h122v13" id="S"/><path fill="#333" d="M77-16l18 4V0H8v-12l18-4v-133l-17-5v-11h68v149zM51-196c-16 0-27-10-27-27s10-27 27-27 27 11 27 27c0 17-10 27-27 27" id="T"/><path fill="#333" d="M127-114c3-31-26-38-50-25v123l15 4V0H10v-12l16-4v-133l-16-5v-11h64l2 14c31-23 102-32 102 30v105l17 4V0h-82v-12l14-4v-98" id="U"/><path fill="#333" d="M73-51c-3 31 27 38 51 25v-123l-16-5v-11h66v149l17 4V0h-65l-2-14C94 9 22 18 22-44v-105l-17-5v-11h68v114" id="V"/><path fill="#333" d="M5-154v-11h89v11l-19 5 24 37 32-37-16-5v-11h56v11l-15 4-46 54 52 81 16 4V0H90v-11l18-4-29-45-38 45 17 4V0H1v-11l15-3 53-62-48-73" id="W"/><g id="k"><use transform="matrix(0.06172839506172839,0,0,0.06172839506172839,0,0)" xlink:href="#S"/><use transform="matrix(0.06172839506172839,0,0,0.06172839506172839,14.814814814814813,0)" xlink:href="#T"/><use transform="matrix(0.06172839506172839,0,0,0.06172839506172839,20.98765432098765,0)" xlink:href="#U"/><use transform="matrix(0.06172839506172839,0,0,0.06172839506172839,33.33333333333333,0)" xlink:href="#V"/><use transform="matrix(0.06172839506172839,0,0,0.06172839506172839,45.679012345679006,0)" xlink:href="#W"/></g><path fill="#333" d="M52-115c0 93 80 130 150 87l7-35h11l-1 55c-23 7-52 12-83 12C60 4 19-37 15-115c-5-113 97-141 201-114l1 51h-12l-5-30c-15-9-39-16-62-16-66 0-86 41-86 109" id="X"/><path fill="#333" d="M56-14l29 5v9H8v-9l26-5 80-107-68-101-27-4v-10h97v10l-30 4 49 73 55-73-29-4v-10h77v10l-26 4-66 88 81 120 26 5v9h-97v-9l30-5-62-91" id="Y"/><g id="l"><use transform="matrix(0.06172839506172839,0,0,0.06172839506172839,0,0)" xlink:href="#B"/><use transform="matrix(0.06172839506172839,0,0,0.06172839506172839,9.814814814814815,0)" xlink:href="#X"/><use transform="matrix(0.06172839506172839,0,0,0.06172839506172839,24.629629629629626,0)" xlink:href="#Y"/></g><path fill="#333" d="M125-118c4-37-41-34-68-26v132l23 4v8H8C5-13 21-9 28-12v-141c-7-3-23 1-20-12h47l2 13c31-23 98-29 98 31v109c7 3 23-1 20 12h-72v-8l22-4v-106" id="Z"/><g id="m"><use transform="matrix(0.06172839506172839,0,0,0.06172839506172839,0,0)" xlink:href="#X"/><use transform="matrix(0.06172839506172839,0,0,0.06172839506172839,14.814814814814813,0)" xlink:href="#G"/><use transform="matrix(0.06172839506172839,0,0,0.06172839506172839,25.925925925925924,0)" xlink:href="#Z"/><use transform="matrix(0.06172839506172839,0,0,0.06172839506172839,37.03703703703704,0)" xlink:href="#z"/><use transform="matrix(0.06172839506172839,0,0,0.06172839506172839,43.20987654320988,0)" xlink:href="#q"/><use transform="matrix(0.06172839506172839,0,0,0.06172839506172839,53.0246913580247,0)" xlink:href="#F"/><use transform="matrix(0.06172839506172839,0,0,0.06172839506172839,59.19753086419754,0)" xlink:href="#Z"/><use transform="matrix(0.06172839506172839,0,0,0.06172839506172839,70.30864197530865,0)" xlink:href="#u"/><use transform="matrix(0.06172839506172839,0,0,0.06172839506172839,80.12345679012346,0)" xlink:href="#r"/></g><path fill="#333" d="M75-17c87 13 134-18 134-103 0-78-51-106-134-100v203zm171-102C246 5 139 7 10 0v-9l31-5v-208l-31-4v-10h107c82 0 129 35 129 117" id="aa"/><path fill="#333" d="M45-84c0 64 52 80 104 63 1 25-30 25-55 25-56 0-80-32-80-88 0-76 62-98 131-80v46h-10c-5-15-4-31-23-35-47-10-67 21-67 69" id="ab"/><path fill="#333" d="M60-80l68-73c-7-3-20 0-17-12h58c3 13-13 9-20 12l-47 48 60 93c7 3 21-1 18 12h-68c-3-12 9-9 15-12L82-83 60-60v48c7 3 21-1 18 12H10v-8l21-4v-226l-24-4v-8h53v170" id="ac"/><g id="n"><use transform="matrix(0.06172839506172839,0,0,0.06172839506172839,0,0)" xlink:href="#aa"/><use transform="matrix(0.06172839506172839,0,0,0.06172839506172839,15.987654320987653,0)" xlink:href="#G"/><use transform="matrix(0.06172839506172839,0,0,0.06172839506172839,27.098765432098766,0)" xlink:href="#ab"/><use transform="matrix(0.06172839506172839,0,0,0.06172839506172839,36.91358024691358,0)" xlink:href="#ac"/><use transform="matrix(0.06172839506172839,0,0,0.06172839506172839,48.0246913580247,0)" xlink:href="#u"/><use transform="matrix(0.06172839506172839,0,0,0.06172839506172839,57.83950617283951,0)" xlink:href="#r"/></g><path fill="#333" d="M141-152c28 39 5 97-54 97-9 0-20-2-27-3L49-35c29 22 130-14 124 52-4 45-38 57-88 61C21 83-8 26 45-2 33-6 22-15 21-31l28-31c-19-9-28-26-28-51-2-51 53-65 100-52l38-20 7 8zM85 64c35 0 61-11 61-42 0-35-57-17-89-21-9 8-16 19-17 34 0 25 19 29 45 29zM52-113c1 26 7 46 35 44 28-1 34-16 35-44 0-26-6-43-34-43s-36 17-36 43" id="ad"/><g id="o"><use transform="matrix(0.06172839506172839,0,0,0.06172839506172839,0,0)" xlink:href="#F"/><use transform="matrix(0.06172839506172839,0,0,0.06172839506172839,6.172839506172839,0)" xlink:href="#A"/><use transform="matrix(0.06172839506172839,0,0,0.06172839506172839,23.456790123456788,0)" xlink:href="#q"/><use transform="matrix(0.06172839506172839,0,0,0.06172839506172839,33.2716049382716,0)" xlink:href="#ad"/><use transform="matrix(0.06172839506172839,0,0,0.06172839506172839,44.38271604938271,0)" xlink:href="#u"/></g></defs></g></svg>